<?xml version="1.0" encoding="UTF-8"?>
<svg version="1.1" xmlns="http://www.w3.org/2000/svg" width="225" height="225">
<path d="M0 0 C74.25 0 148.5 0 225 0 C225 74.25 225 148.5 225 225 C150.75 225 76.5 225 0 225 C0 150.75 0 76.5 0 0 Z " fill="#010101" transform="translate(0,0)"/>
<path d="M0 0 C0.33 0 0.66 0 1 0 C1.66 5.94 2.32 11.88 3 18 C3.66 17.67 4.32 17.34 5 17 C9.61146256 16.53885374 12.69562851 16.29889547 16.5 19.125 C19.45377494 22.52184118 19.23960627 23.67510691 19 28 C20.74023438 27.80083984 20.74023438 27.80083984 22.515625 27.59765625 C26.5992127 27.13339279 30.68439141 26.6850687 34.77050781 26.24365234 C36.52240555 26.0521944 38.27316443 25.85031271 40.0234375 25.64453125 C67.24799875 22.8239686 92.61381088 26.27555499 117 39 C117 39.99 117 40.98 117 42 C112.40860483 42.24523772 109.33026386 41.5631787 105.125 39.75 C98.31111759 37.00584258 91.51680609 35.12269239 84.35333252 33.53684998 C82.63145613 33.14404985 80.91801163 32.71377062 79.21063232 32.26210022 C68.75070883 29.68510843 58.69910356 29.54367223 47.98046875 29.56640625 C46.06822019 29.56183105 44.15597326 29.55652157 42.24372864 29.55052185 C38.25576048 29.54164243 34.26799312 29.54395372 30.2800293 29.55395508 C25.2171521 29.56542678 20.15497431 29.54523395 15.09218884 29.51603794 C11.14801264 29.49752269 7.20399926 29.4979988 3.25979042 29.50367546 C1.39542982 29.50382687 -0.46894313 29.49793524 -2.33326149 29.48538399 C-13.1597543 29.42275247 -22.98777478 30.20789598 -33.45585632 33.06919861 C-37.66422752 34.17444662 -41.670142 34.68510124 -46 35 C-42.85488046 32.40811835 -39.7079127 30.89811591 -35.9375 29.375 C-34.89464844 28.94960937 -33.85179687 28.52421875 -32.77734375 28.0859375 C-30.87046352 27.34035001 -28.94239121 26.64746374 -27 26 C-28.21901001 25.78851318 -28.21901001 25.78851318 -29.46264648 25.57275391 C-33.12258579 24.93257256 -36.78000186 24.27897757 -40.4375 23.625 C-42.3565918 23.29242188 -42.3565918 23.29242188 -44.31445312 22.953125 C-45.52939453 22.73398438 -46.74433594 22.51484375 -47.99609375 22.2890625 C-49.12200928 22.09006348 -50.2479248 21.89106445 -51.40795898 21.68603516 C-52.26333252 21.45964355 -53.11870605 21.23325195 -54 21 C-54.33 20.34 -54.66 19.68 -55 19 C-37.51 20.65 -20.02 22.3 -2 24 C-2 20.37 -2 16.74 -2 13 C-1.73156075 10.59603061 -1.41013123 8.19638776 -1 5.8125 C-0.7215625 4.15154297 -0.7215625 4.15154297 -0.4375 2.45703125 C-0.293125 1.64621094 -0.14875 0.83539063 0 0 Z " fill="#E24F06" transform="translate(75,50)"/>
<path d="M0 0 C12 0 12 0 16 3 C16.51020728 7.08165827 16.31361802 8.52957297 14 12 C15.32 12.66 16.64 13.32 18 14 C18.36768802 19.51532033 18.36768802 19.51532033 16.625 21.8125 C11.77964575 25.35333579 5.7718809 24.05658707 0 24 C0 16.08 0 8.16 0 0 Z " fill="#E5E5E5" transform="translate(18,86)"/>
<path d="M0 0 C12 0 12 0 16 2 C17.72635342 5.45270684 17.48406441 9.22429757 17 13 C15.4375 15.0625 15.4375 15.0625 13 16 C9.25 16.1875 9.25 16.1875 6 16 C6 18.64 6 21.28 6 24 C4.02 24 2.04 24 0 24 C0 16.08 0 8.16 0 0 Z " fill="#F5F5F5" transform="translate(119,86)"/>
<path d="M0 0 C0 5.28 0 10.56 0 16 C-13.00552486 16.60773481 -13.00552486 16.60773481 -17.375 13.9375 C-19.44098839 10.20282869 -19.75123045 8.20689051 -19 4 C-14.92590617 -3.52140399 -7.27843584 -0.88429594 0 0 Z " fill="#EEEEEE" transform="translate(67,94)"/>
<path d="M0 0 C3.155625 0.2784375 3.155625 0.2784375 6.375 0.5625 C6.375 5.8425 6.375 11.1225 6.375 16.5625 C-6.65775333 17.17150716 -6.65775333 17.17150716 -11 14.4375 C-12.92785153 11.02668575 -13.34722637 9.41437398 -12.625 5.5625 C-8.77129475 -0.21805788 -6.72929792 -0.59376158 0 0 Z " fill="#EFEFEF" transform="translate(170.625,93.4375)"/>
<path d="M0 0 C1.98 0 3.96 0 6 0 C6.33 4.62 6.66 9.24 7 14 C8.32 12.68 9.64 11.36 11 10 C13.78142043 9.49244153 16.1457229 9.80971486 19 10 C18.175 10.7425 17.35 11.485 16.5 12.25 C13.55155147 14.87387385 13.55155147 14.87387385 14 19 C15.2832557 20.9792785 15.2832557 20.9792785 17 22.75 C17.556875 23.36359375 18.11375 23.9771875 18.6875 24.609375 C19.120625 25.06828125 19.55375 25.5271875 20 26 C12.73846154 26.61538462 12.73846154 26.61538462 9 23.5 C8.34 22.675 7.68 21.85 7 21 C6.67 22.65 6.34 24.3 6 26 C4.02 26 2.04 26 0 26 C0 17.42 0 8.84 0 0 Z " fill="#F0F0F0" transform="translate(86,84)"/>
<path d="M0 0 C12.44699974 -0.46324362 23.21806898 -0.40307594 35 4 C36.39939483 4.4996645 37.79915253 4.99831358 39.19921875 5.49609375 C45.29577623 7.70191788 51.23507406 10.00188265 57 13 C57 13.99 57 14.98 57 16 C52.40860483 16.24523772 49.33026386 15.5631787 45.125 13.75 C34.48200167 9.45631039 23.27048415 7.05903076 12 5 C12 4.34 12 3.68 12 3 C7.71 2.67 3.42 2.34 -1 2 C-0.67 1.34 -0.34 0.68 0 0 Z " fill="#E6530C" transform="translate(135,76)"/>
<path d="M0 0 C2.8125 1.625 2.8125 1.625 5 4 C5.8125 7.25 5.8125 7.25 6 10 C2.04 10 -1.92 10 -6 10 C-5.67 10.66 -5.34 11.32 -5 12 C-1.7 12 1.6 12 5 12 C3 16 3 16 2 17 C-2.75242728 17.68733452 -6.02289168 17.65805254 -10.0625 14.9375 C-12.5278601 11.19969598 -12.86301172 9.3935142 -12 5 C-8.32600983 0.88863005 -5.54784976 -1.06235421 0 0 Z " fill="#E1E1E1" transform="translate(150,93)"/>
<path d="M0 0 C20.79 1.98 20.79 1.98 42 4 C42 4.33 42 4.66 42 5 C38.37 5 34.74 5 31 5 C31 6.32 31 7.64 31 9 C38.26 9 45.52 9 53 9 C53 9.33 53 9.66 53 10 C51.34677734 10.03867188 51.34677734 10.03867188 49.66015625 10.078125 C39.98047644 10.40504675 31.11981625 11.66269556 21.75 14.078125 C17.47043801 15.13018399 13.38676126 15.68096282 9 16 C12.14511954 13.40811835 15.2920873 11.89811591 19.0625 10.375 C20.10535156 9.94960937 21.14820313 9.52421875 22.22265625 9.0859375 C24.12953648 8.34035001 26.05760879 7.64746374 28 7 C26.78098999 6.78851318 26.78098999 6.78851318 25.53735352 6.57275391 C21.87741421 5.93257256 18.21999814 5.27897757 14.5625 4.625 C13.28310547 4.40328125 12.00371094 4.1815625 10.68554688 3.953125 C9.47060547 3.73398438 8.25566406 3.51484375 7.00390625 3.2890625 C5.31503296 2.99056396 5.31503296 2.99056396 3.59204102 2.68603516 C2.73666748 2.45964355 1.88129395 2.23325195 1 2 C0.67 1.34 0.34 0.68 0 0 Z " fill="#C44C15" transform="translate(20,69)"/>
<path d="M0 0 C0 0.33 0 0.66 0 1 C-4.29 1.33 -8.58 1.66 -13 2 C-7.06 2.99 -7.06 2.99 -1 4 C-4.72154309 4.93038577 -7.5250965 5.12101359 -11.32910156 5.11352539 C-12.61012756 5.11344986 -13.89115356 5.11337433 -15.21099854 5.11329651 C-16.60420775 5.10819026 -17.99741657 5.10297427 -19.390625 5.09765625 C-20.81980337 5.09579032 -22.24898238 5.09436724 -23.67816162 5.09336853 C-27.43300148 5.08955715 -31.18780243 5.07973867 -34.94262695 5.06866455 C-38.77685012 5.05842075 -42.61107959 5.05386455 -46.4453125 5.04882812 C-53.96355937 5.03811514 -61.48177423 5.02105531 -69 5 C-69 4.67 -69 4.34 -69 4 C-63.03208135 3.4156413 -57.06291873 2.8469511 -51.09228516 2.29101562 C-49.07334927 2.10101313 -47.05476968 1.90717461 -45.03662109 1.70898438 C-29.98484121 0.23464711 -15.12194272 -0.26337789 0 0 Z " fill="#D95416" transform="translate(148,75)"/>
<path d="M0 0 C1.98 0 3.96 0 6 0 C6 8.58 6 17.16 6 26 C4.02 26 2.04 26 0 26 C0 17.42 0 8.84 0 0 Z " fill="#EEEEEE" transform="translate(39,84)"/>
<path d="M0 0 C0.33 1.65 0.66 3.3 1 5 C-0.65 5.33 -2.3 5.66 -4 6 C-4 7.65 -4 9.3 -4 11 C-2.35 11.33 -0.7 11.66 1 12 C1 13.65 1 15.3 1 17 C-2.92556076 17.30788712 -5.3957736 17.30854114 -8.9375 15.5 C-11.45058459 12.45383686 -11.67052997 10.75794217 -11.43359375 6.90234375 C-10.77657726 4.01975787 -9.33462725 2.71663768 -7 1 C-4.53721199 -0.231394 -2.7204945 -0.07159196 0 0 Z " fill="#F0F0F0" transform="translate(81,93)"/>
<path d="M0 0 C1.65 0 3.3 0 5 0 C5 8.58 5 17.16 5 26 C3.35 26 1.7 26 0 26 C0 17.42 0 8.84 0 0 Z " fill="#FCFCFC" transform="translate(195,84)"/>
<path d="M0 0 C4 0 8 0 12 0 C12 1.32 12 2.64 12 4 C10.35 4.66 8.7 5.32 7 6 C6.67 9.3 6.34 12.6 6 16 C4.02 16 2.04 16 0 16 C0 10.72 0 5.44 0 0 Z " fill="#EFEFEF" transform="translate(180,94)"/>
<path d="M0 0 C6.8359375 -0.1953125 6.8359375 -0.1953125 9 0 C9.66 0.66 10.32 1.32 11 2 C10.625 4.125 10.625 4.125 10 6 C9.34 6 8.68 6 8 6 C9.32 8.31 10.64 10.62 12 13 C9.625 12.6875 9.625 12.6875 7 12 C6.34 11.01 5.68 10.02 5 9 C4.67 10.32 4.34 11.64 4 13 C2.68 13 1.36 13 0 13 C0 8.71 0 4.42 0 0 Z " fill="#CCCCCC" transform="translate(18,124)"/>
<path d="M0 0 C4.29425875 1.07356469 4.74740471 1.5084773 7 5 C7.33 3.35 7.66 1.7 8 0 C9.32 0 10.64 0 12 0 C12 4.29 12 8.58 12 13 C10.68 13 9.36 13 8 13 C5.75 10 5.75 10 4 7 C3.67 8.98 3.34 10.96 3 13 C2.01 13 1.02 13 0 13 C0 8.71 0 4.42 0 0 Z " fill="#DEDEDE" transform="translate(151,124)"/>
<path d="M0 0 C1.859375 0.2265625 1.859375 0.2265625 4 1 C5.265625 2.9609375 5.265625 2.9609375 6.25 5.375 C6.58515625 6.16648438 6.9203125 6.95796875 7.265625 7.7734375 C8 10 8 10 8 13 C6.68 12.67 5.36 12.34 4 12 C4 11.34 4 10.68 4 10 C1.52733235 10.34444881 1.52733235 10.34444881 -1 11 C-1.33 11.66 -1.66 12.32 -2 13 C-2.99 13 -3.98 13 -5 13 C-4.39254603 8.14036821 -2.27241033 4.2594482 0 0 Z " fill="#BFBFBF" transform="translate(57,124)"/>
<path d="M0 0 C0.33 0.99 0.66 1.98 1 3 C-1.64 2.67 -4.28 2.34 -7 2 C-6.67 4.64 -6.34 7.28 -6 10 C-4.68 10 -3.36 10 -2 10 C-1.67 9.01 -1.34 8.02 -1 7 C-1.99 6.67 -2.98 6.34 -4 6 C-2.02 6 -0.04 6 2 6 C1.625 8.9375 1.625 8.9375 1 12 C-1.80915474 13.40457737 -3.88810534 13.24895157 -7 13 C-9.375 11.9375 -9.375 11.9375 -11 10 C-11.42751128 6.57990979 -11.60318593 4.16867275 -10 1.0625 C-6.73357754 -0.67278693 -3.65648548 -0.17982715 0 0 Z " fill="#E1E1E1" transform="translate(198,124)"/>
<path d="M0 0 C5.84301324 -0.30752701 9.74787751 0.07093169 15 3 C18.74324207 6.64207337 19.83623191 10.05398564 21 15 C17.58943731 13.86314577 16.80065835 12.84668031 14.5625 10.125 C10.07662118 4.68574649 7.15845814 2.68831328 0 2 C0 1.34 0 0.68 0 0 Z " fill="#E2530F" transform="translate(138,84)"/>
<path d="M0 0 C2.87525669 -0.05425013 5.74947646 -0.09379277 8.625 -0.125 C9.43324219 -0.14175781 10.24148437 -0.15851563 11.07421875 -0.17578125 C15.80093815 -0.21420986 19.55387702 0.17262906 24 2 C23 4 23 4 22 5 C20.31391034 5.07205511 18.62499341 5.08386068 16.9375 5.0625 C16.01839844 5.05347656 15.09929687 5.04445313 14.15234375 5.03515625 C13.44207031 5.02355469 12.73179687 5.01195313 12 5 C12 4.34 12 3.68 12 3 C7.71 2.67 3.42 2.34 -1 2 C-0.67 1.34 -0.34 0.68 0 0 Z " fill="#F65605" transform="translate(135,76)"/>
<path d="M0 0 C0 0.33 0 0.66 0 1 C-0.92683594 1.06058594 -1.85367188 1.12117188 -2.80859375 1.18359375 C-4.60490234 1.30927734 -4.60490234 1.30927734 -6.4375 1.4375 C-7.63246094 1.51871094 -8.82742187 1.59992188 -10.05859375 1.68359375 C-12.88570244 1.67656114 -12.88570244 1.67656114 -14 3 C-15.70772358 3.08713831 -17.41898649 3.10700007 -19.12890625 3.09765625 C-20.68061523 3.09282227 -20.68061523 3.09282227 -22.26367188 3.08789062 C-23.35228516 3.07951172 -24.44089844 3.07113281 -25.5625 3.0625 C-27.2012207 3.05573242 -27.2012207 3.05573242 -28.87304688 3.04882812 C-31.58208495 3.03699826 -34.29101599 3.02051543 -37 3 C-36.67 2.34 -36.34 1.68 -36 1 C-24.56371626 -1.52026211 -11.62771542 -0.09167898 0 0 Z " fill="#D24D0E" transform="translate(148,75)"/>
<path d="M0 0 C12.66970387 -0.18451025 12.66970387 -0.18451025 18 1 C17.01171875 2.45703125 17.01171875 2.45703125 15 4 C12.20748417 4.37674518 9.61220799 4.60191941 6.8125 4.6875 C6.06291016 4.72166016 5.31332031 4.75582031 4.54101562 4.79101562 C2.69453162 4.87334294 0.84729006 4.93835281 -1 5 C-0.67 3.35 -0.34 1.7 0 0 Z " fill="#FC5803" transform="translate(51,74)"/>
<path d="M0 0 C0 0.66 0 1.32 0 2 C-1.98 2.66 -3.96 3.32 -6 4 C-5.67 5.98 -5.34 7.96 -5 10 C-3.35 10.33 -1.7 10.66 0 11 C0 11.66 0 12.32 0 13 C-3.18136394 13.21691118 -5.43969547 13.25066255 -8.375 11.9375 C-10 10 -10 10 -10.4375 6.5 C-10 3 -10 3 -8.9375 1.0625 C-5.98831309 -0.55479605 -3.29132441 -0.18630138 0 0 Z " fill="#E5E5E5" transform="translate(98,124)"/>
<path d="M0 0 C0.33 0 0.66 0 1 0 C1.66 6.6 2.32 13.2 3 20 C2.01 20 1.02 20 0 20 C-0.66 20.99 -1.32 21.98 -2 23 C-2.31918373 15.14453364 -1.35709504 7.73059495 0 0 Z " fill="#C94D15" transform="translate(75,50)"/>
<path d="M0 0 C1.32 0 2.64 0 4 0 C4 4.29 4 8.58 4 13 C2.68 13 1.36 13 0 13 C0 8.71 0 4.42 0 0 Z " fill="#DDDDDD" transform="translate(122,124)"/>
<path d="M0 0 C4.29325497 0.44419121 8.58420051 0.90772969 12.875 1.375 C14.70998047 1.56449219 14.70998047 1.56449219 16.58203125 1.7578125 C17.74863281 1.88671875 18.91523437 2.015625 20.1171875 2.1484375 C21.19597168 2.26364746 22.27475586 2.37885742 23.38623047 2.49755859 C26 3 26 3 28 5 C21.28964785 5.38385489 14.96299951 4.83403085 8.375 3.625 C7.66408203 3.49891357 6.95316406 3.37282715 6.22070312 3.24291992 C4.46481143 2.90099884 2.72909817 2.45856862 1 2 C0.67 1.34 0.34 0.68 0 0 Z " fill="#BF4D1A" transform="translate(20,69)"/>
<path d="M0 0 C0 0.66 0 1.32 0 2 C-0.99 2 -1.98 2 -3 2 C-3 2.66 -3 3.32 -3 4 C-13.37357631 7.44419134 -13.37357631 7.44419134 -19 7 C-14.97005274 3.83361287 -11.40225707 1.93425483 -6.375 0.875 C-5.59898438 0.70742187 -4.82296875 0.53984375 -4.0234375 0.3671875 C-2 0 -2 0 0 0 Z " fill="#DE5312" transform="translate(48,78)"/>
<path d="M0 0 C4 1 4 1 5.25 3.0625 C5.4975 3.701875 5.745 4.34125 6 5 C5.01 5 4.02 5 3 5 C3 7.64 3 10.28 3 13 C2.01 13 1.02 13 0 13 C0 8.71 0 4.42 0 0 Z " fill="#F0F0F0" transform="translate(151,124)"/>
<path d="M0 0 C0.5625 1.9375 0.5625 1.9375 1 4 C0 5 0 5 -3.5625 5.0625 C-4.696875 5.041875 -5.83125 5.02125 -7 5 C-6.625 2.5625 -6.625 2.5625 -6 0 C-3.50907189 -1.24546405 -2.58919267 -0.7767578 0 0 Z " fill="#A1A1A1" transform="translate(28,125)"/>
<path d="M0 0 C2.125 0.375 2.125 0.375 4 1 C4.38218767 2.65614657 4.71395102 4.32457024 5 6 C4 7 4 7 1.4375 7.0625 C0.2309375 7.0315625 0.2309375 7.0315625 -1 7 C-1.625 4.625 -1.625 4.625 -2 2 C-1.34 1.34 -0.68 0.68 0 0 Z " fill="#0F0F0F" transform="translate(166,98)"/>
<path d="M0 0 C2.125 0.375 2.125 0.375 4 1 C4.38218767 2.65614657 4.71395102 4.32457024 5 6 C4 7 4 7 1.4375 7.0625 C0.2309375 7.0315625 0.2309375 7.0315625 -1 7 C-1.625 4.625 -1.625 4.625 -2 2 C-1.34 1.34 -0.68 0.68 0 0 Z " fill="#0F0F0F" transform="translate(56,98)"/>
<path d="M0 0 C4.41889613 1.35021826 6.34345343 3.26115668 9 7 C7.35 7.66 5.7 8.32 4 9 C2.10134397 6.02819057 0.64544429 3.48539917 0 0 Z " fill="#D75216" transform="translate(46,85)"/>
<path d="M0 0 C1.11761719 0.0918457 1.11761719 0.0918457 2.2578125 0.18554688 C4.08982155 0.3382143 5.92014316 0.51089754 7.75 0.6875 C7.75 1.0175 7.75 1.3475 7.75 1.6875 C4.12 1.6875 0.49 1.6875 -3.25 1.6875 C-3.25 2.6775 -3.25 3.6675 -3.25 4.6875 C-7.705 3.6975 -7.705 3.6975 -12.25 2.6875 C-8.56627606 -1.08347003 -4.87888257 -0.48702626 0 0 Z " fill="#B84615" transform="translate(54.25,72.3125)"/>
<path d="M0 0 C4.92127034 -0.16682272 8.50343896 -0.24828052 13 2 C12.34 3.32 11.68 4.64 11 6 C10.484375 5.525625 9.96875 5.05125 9.4375 4.5625 C6.33217325 2.57190593 3.63367496 2.34939182 0 2 C0 1.34 0 0.68 0 0 Z " fill="#B24718" transform="translate(138,84)"/>
<path d="M0 0 C0.33 0 0.66 0 1 0 C1 1.65 1 3.3 1 5 C1.99 5.33 2.98 5.66 4 6 C3.360625 6.12375 2.72125 6.2475 2.0625 6.375 C1.0415625 6.684375 1.0415625 6.684375 0 7 C-0.33 7.66 -0.66 8.32 -1 9 C-1.99 9 -2.98 9 -4 9 C-3.47181039 5.19703482 -2.56226812 2.88255163 0 0 Z " fill="#E6E6E6" transform="translate(56,128)"/>
<path d="M0 0 C3.63 0.66 7.26 1.32 11 2 C9.68 2.33 8.36 2.66 7 3 C7.33 4.32 7.66 5.64 8 7 C4.7 6.67 1.4 6.34 -2 6 C-2 5.67 -2 5.34 -2 5 C-0.02 5 1.96 5 4 5 C4.33 4.34 4.66 3.68 5 3 C5.33 2.67 5.66 2.34 6 2 C3.03 1.505 3.03 1.505 0 1 C0 0.67 0 0.34 0 0 Z " fill="#C64C14" transform="translate(153,76)"/>
<path d="M0 0 C1.65 0 3.3 0 5 0 C4.34 0.66 3.68 1.32 3 2 C2.53837573 4.43252661 2.53837573 4.43252661 2.375 7.125 C2.30023437 8.03507813 2.22546875 8.94515625 2.1484375 9.8828125 C2.09945313 10.58148438 2.05046875 11.28015625 2 12 C1.34 12 0.68 12 0 12 C0 8.04 0 4.08 0 0 Z " fill="#FBFBFB" transform="translate(19,124)"/>
<path d="M0 0 C0 1.98 0 3.96 0 6 C-1.65 6 -3.3 6 -5 6 C-3.68 5.67 -2.36 5.34 -1 5 C-1 3.68 -1 2.36 -1 1 C-2.98 1.66 -4.96 2.32 -7 3 C-7 2.34 -7 1.68 -7 1 C-8.98 1 -10.96 1 -13 1 C-13 0.67 -13 0.34 -13 0 C-8.37078475 -1.0161692 -4.65537393 -0.83796731 0 0 Z " fill="#4D4745" transform="translate(193,93)"/>
<path d="M0 0 C2.475 0.495 2.475 0.495 5 1 C4.67 2.65 4.34 4.3 4 6 C2.68 6 1.36 6 0 6 C0 4.02 0 2.04 0 0 Z " fill="#141414" transform="translate(125,91)"/>
<path d="M0 0 C1.62490954 -0.02698189 3.24994633 -0.04638757 4.875 -0.0625 C5.77992188 -0.07410156 6.68484375 -0.08570312 7.6171875 -0.09765625 C10 0 10 0 12 1 C11.67 1.66 11.34 2.32 11 3 C7.7 3 4.4 3 1 3 C0.67 2.01 0.34 1.02 0 0 Z " fill="#141414" transform="translate(144,103)"/>
<path d="M0 0 C0.99 0.66 1.98 1.32 3 2 C3.1875 5.125 3.1875 5.125 3 8 C1.68 8 0.36 8 -1 8 C-0.34 6.35 0.32 4.7 1 3 C-1.31 3 -3.62 3 -6 3 C-6 2.67 -6 2.34 -6 2 C-4.02 2 -2.04 2 0 2 C0 1.34 0 0.68 0 0 Z " fill="#DE571A" transform="translate(91,70)"/>
<path d="M0 0 C1.98 0 3.96 0 6 0 C5.67 1.98 5.34 3.96 5 6 C3.02 6 1.04 6 -1 6 C-0.01 5.34 0.98 4.68 2 4 C2.33 3.01 2.66 2.02 3 1 C2.01 0.67 1.02 0.34 0 0 Z " fill="#F3F3F3" transform="translate(194,130)"/>
<path d="M0 0 C2.475 0.495 2.475 0.495 5 1 C4.67 2.32 4.34 3.64 4 5 C2.68 5 1.36 5 0 5 C0 3.35 0 1.7 0 0 Z " fill="#131313" transform="translate(25,100)"/>
<path d="M0 0 C2.50298434 2.93828597 3.46930939 5.17902761 4 9 C1 8 1 8 -1 5 C-0.625 2.3125 -0.625 2.3125 0 0 Z " fill="#B64B1C" transform="translate(155,90)"/>
<path d="M0 0 C0.33 0 0.66 0 1 0 C1 2.97 1 5.94 1 9 C-0.32 9 -1.64 9 -3 9 C-3.33 7.68 -3.66 6.36 -4 5 C-3.01 5 -2.02 5 -1 5 C-0.67 3.35 -0.34 1.7 0 0 Z " fill="#D8D8D8" transform="translate(159,124)"/>
<path d="M0 0 C2.64 0 5.28 0 8 0 C8.33 0.99 8.66 1.98 9 3 C4.545 2.01 4.545 2.01 0 1 C0 0.67 0 0.34 0 0 Z " fill="#D5D5D5" transform="translate(190,124)"/>
<path d="M0 0 C1.32 0 2.64 0 4 0 C4 0.66 4 1.32 4 2 C5.32 2.33 6.64 2.66 8 3 C5.03 3 2.06 3 -1 3 C-0.67 2.01 -0.34 1.02 0 0 Z " fill="#FB5703" transform="translate(86,76)"/>
</svg>
